<svg xmlns="http://www.w3.org/2000/svg" xmlns:xlink="http://www.w3.org/1999/xlink" viewBox="0 0 457.26 113"><defs><style>.cls-1{fill:#2a2c44;}.cls-2{fill:url(#linear-gradient);}.cls-3{fill:url(#linear-gradient-2);}.cls-4{fill:url(#linear-gradient-3);}.cls-5{fill:url(#linear-gradient-4);}.cls-6{fill:url(#linear-gradient-5);}.cls-7{fill:url(#linear-gradient-6);}.cls-8{fill:url(#linear-gradient-7);}.cls-9{fill:url(#linear-gradient-8);}.cls-10{fill:url(#linear-gradient-9);}.cls-11{fill:url(#linear-gradient-10);}.cls-12{fill:url(#linear-gradient-11);}.cls-13{fill:url(#linear-gradient-12);}.cls-14{fill:url(#linear-gradient-13);}.cls-15{fill:url(#linear-gradient-14);}.cls-16{fill:url(#linear-gradient-15);}.cls-17{fill:url(#linear-gradient-16);}.cls-18{fill:url(#linear-gradient-17);}.cls-19{fill:url(#linear-gradient-18);}.cls-20{fill:url(#linear-gradient-19);}.cls-21{fill:url(#linear-gradient-20);}.cls-22{fill:url(#linear-gradient-21);}.cls-23{fill:url(#linear-gradient-22);}.cls-24{fill:url(#linear-gradient-23);}.cls-25{fill:url(#linear-gradient-24);}.cls-26{fill:url(#linear-gradient-25);}.cls-27{fill:url(#linear-gradient-26);}.cls-28{fill:url(#linear-gradient-27);}.cls-29{fill:url(#linear-gradient-28);}.cls-30,.cls-31{fill:#fff;}.cls-30{fill-opacity:0;}</style><linearGradient id="linear-gradient" x1="498.03" y1="-265.11" x2="206.64" y2="-715.75" gradientTransform="matrix(0.23, 0, 0, -0.23, -19.82, -49.05)" gradientUnits="userSpaceOnUse"><stop offset="0" stop-color="#64ddfa"/><stop offset="0.13" stop-color="#56d7fa"/><stop offset="0.72" stop-color="#1dbbf8"/><stop offset="1" stop-color="#06b0f7"/></linearGradient><linearGradient id="linear-gradient-2" x1="435.18" y1="-224.48" x2="143.79" y2="-675.11" xlink:href="#linear-gradient"/><linearGradient id="linear-gradient-3" x1="479.41" y1="-253.07" x2="188.02" y2="-703.71" xlink:href="#linear-gradient"/><linearGradient id="linear-gradient-4" x1="354.22" y1="-172.12" x2="62.83" y2="-622.75" xlink:href="#linear-gradient"/><linearGradient id="linear-gradient-5" x1="500.09" y1="-266.45" x2="208.7" y2="-717.08" xlink:href="#linear-gradient"/><linearGradient id="linear-gradient-6" x1="486.84" y1="-257.88" x2="195.46" y2="-708.52" xlink:href="#linear-gradient"/><linearGradient id="linear-gradient-7" x1="389.02" y1="-194.63" x2="97.63" y2="-645.26" xlink:href="#linear-gradient"/><linearGradient id="linear-gradient-8" x1="333.63" y1="-158.82" x2="42.24" y2="-609.45" xlink:href="#linear-gradient"/><linearGradient id="linear-gradient-9" x1="266" y1="-115.09" x2="-25.39" y2="-565.72" xlink:href="#linear-gradient"/><linearGradient id="linear-gradient-10" x1="378.42" y1="-187.77" x2="87.03" y2="-638.41" xlink:href="#linear-gradient"/><linearGradient id="linear-gradient-11" x1="294.53" y1="-133.53" x2="3.14" y2="-584.16" xlink:href="#linear-gradient"/><linearGradient id="linear-gradient-12" x1="520.85" y1="-279.87" x2="229.46" y2="-730.51" xlink:href="#linear-gradient"/><linearGradient id="linear-gradient-13" x1="483.25" y1="-255.56" x2="191.86" y2="-706.19" xlink:href="#linear-gradient"/><linearGradient id="linear-gradient-14" x1="483.55" y1="-255.75" x2="192.17" y2="-706.39" xlink:href="#linear-gradient"/><linearGradient id="linear-gradient-15" x1="529" y1="-285.14" x2="237.61" y2="-735.78" xlink:href="#linear-gradient"/><linearGradient id="linear-gradient-16" x1="344.78" y1="-166.02" x2="53.39" y2="-616.66" xlink:href="#linear-gradient"/><linearGradient id="linear-gradient-17" x1="431.59" y1="-222.16" x2="140.2" y2="-672.79" xlink:href="#linear-gradient"/><linearGradient id="linear-gradient-18" x1="461.24" y1="-241.32" x2="169.86" y2="-691.96" xlink:href="#linear-gradient"/><linearGradient id="linear-gradient-19" x1="363.76" y1="-178.29" x2="72.37" y2="-628.93" xlink:href="#linear-gradient"/><linearGradient id="linear-gradient-20" x1="536.35" y1="-289.9" x2="244.96" y2="-740.53" xlink:href="#linear-gradient"/><linearGradient id="linear-gradient-21" x1="486.83" y1="-257.88" x2="195.44" y2="-708.51" xlink:href="#linear-gradient"/><linearGradient id="linear-gradient-22" x1="405.09" y1="-205.02" x2="113.71" y2="-655.66" xlink:href="#linear-gradient"/><linearGradient id="linear-gradient-23" x1="294.65" y1="-133.61" x2="3.27" y2="-584.24" xlink:href="#linear-gradient"/><linearGradient id="linear-gradient-24" x1="542.55" y1="-293.9" x2="251.16" y2="-744.54" xlink:href="#linear-gradient"/><linearGradient id="linear-gradient-25" x1="487.62" y1="-258.38" x2="196.23" y2="-709.01" xlink:href="#linear-gradient"/><linearGradient id="linear-gradient-26" x1="437.25" y1="-225.81" x2="145.86" y2="-676.45" xlink:href="#linear-gradient"/><linearGradient id="linear-gradient-27" x1="394.9" y1="-198.44" x2="103.51" y2="-649.07" xlink:href="#linear-gradient"/><linearGradient id="linear-gradient-28" x1="418.75" y1="-213.85" x2="127.36" y2="-664.49" xlink:href="#linear-gradient"/></defs><title>secureshield-logo-text</title><g id="Layer_2" data-name="Layer 2"><g id="Layer_1-2" data-name="Layer 1"><path class="cls-1" d="M86,75.2c-4.66,11-14.06,25.68-37.29,33.32l-1.25.09H47l-.2-.07C23.5,100.9,13.06,86.19,8.4,75.2A54.83,54.83,0,0,1,3.82,52.92V18.58l44-14.14L90.59,18.59V53A55.29,55.29,0,0,1,86,75.2Z"/><path class="cls-2" d="M85.82,24.15l-1.76-.58c.6.53,1.18,1.06,1.76,1.59Z"/><path class="cls-3" d="M34.73,32.44c6.31-2.15,12.7-3.13,19.33-1.8a52.34,52.34,0,0,1,15.46,6c6.54,3.7,12.18,8.23,16.3,14.14V48.69c-4.56-6.24-10.76-10.76-17.69-14.42-6.65-3.51-13.66-6-21.33-5.74a45.05,45.05,0,0,0-17,4.19c-9.19,4-16.21,10.1-20.53,18.44v3.27s0,.28,0,.66a40.23,40.23,0,0,1,2.35-4.63C17,41.47,24.93,35.77,34.73,32.44Z"/><path class="cls-4" d="M65.88,45.24a26.3,26.3,0,0,0-18.18-4.3,33.43,33.43,0,0,0-28.08,28.8,56.66,56.66,0,0,0,.08,15.17c.62.8,1.28,1.6,2,2.39a57.23,57.23,0,0,1-.14-16.48c1.19-8.95,4.9-16.75,12.32-22.36,9.07-6.85,18.9-8.56,29.13-3.11C73.57,51,80.26,59.31,83.31,70c.23-.68.43-1.34.61-2C81,58.55,74.9,51,65.88,45.24Z"/><path class="cls-5" d="M17.48,33.27c11.67-8.41,24.26-11.41,38.2-6.48.44.15,1-.11,1.53-.17,0-.18-.05-.37-.07-.55a2.27,2.27,0,0,0-.44-.38c-.4-.2-.81-.37-1.23-.53C49.67,23,43.71,22.7,37.58,23.38c-10.82,1.2-21,7.16-28.28,15.16V41A42.22,42.22,0,0,1,17.48,33.27Z"/><path class="cls-6" d="M47.81,53.28c-4.4.81-8,3.28-11.74,5.61a14.55,14.55,0,0,0-6.86,9.67,28.9,28.9,0,0,0-.84,6.18,50.39,50.39,0,0,0,5.52,22.7c.74.45,1.5.88,2.29,1.31a51.5,51.5,0,0,1-5.35-15.22c-.94-5.1-1.08-10.18,1-15.09C38,53.54,56.51,49.53,68.72,60.53c5.44,4.89,8.82,11,11.11,17.67.25-.49.5-1,.73-1.47a43.34,43.34,0,0,0-7.84-14.06C66.23,55,58,51.43,47.81,53.28Z"/><path class="cls-7" d="M60.78,46.63A17.38,17.38,0,0,0,55.72,45C40.4,42.37,28.1,54.16,25.28,64.21a48.25,48.25,0,0,0-.09,26.69c.65.61,1.33,1.21,2,1.79a50.8,50.8,0,0,1-1.89-20.61,29.7,29.7,0,0,1,9.83-19.65c7-6.33,17.63-8.3,25.21-4.32,8.11,4.24,14.57,10.29,18.39,18.82.82,1.84,1.54,3.72,2.3,5.59l.61,0a8.57,8.57,0,0,0-.18-1.77C78.05,59.71,70.75,52,60.78,46.63Z"/><path class="cls-8" d="M65,18.28c-.27-.43-.44-1.07-.82-1.25L64,16.94,48.07,11.67l-1.73.56a69.45,69.45,0,0,1,17.12,6C63.89,18.46,64.49,18.28,65,18.28Z"/><path class="cls-9" d="M22.27,34.33A47.9,47.9,0,0,1,38.85,28c.46-.09.81-.64,1.2-1-.5-.18-1-.58-1.51-.5a45.9,45.9,0,0,0-4.77,1.13C23.49,30.7,15.13,36,9.31,44.12v3A40.41,40.41,0,0,1,22.27,34.33Z"/><path class="cls-10" d="M9.31,24.15v1c.79-.64,1.59-1.25,2.4-1.82Z"/><path class="cls-11" d="M39.07,41c.14,0,.32-.1.39-.21a10.33,10.33,0,0,0,.45-.95c-.32-.14-.65-.42-1-.4a3.75,3.75,0,0,0-1.26.42,36.69,36.69,0,0,0-16,13.56c-4.66,6.93-6.53,14.67-7,23.5q.75,1.5,1.68,3.06a55.79,55.79,0,0,1,2.13-14.53C21.61,54.22,28,45.59,39.07,41Z"/><path class="cls-12" d="M22.86,25.14a2.28,2.28,0,0,0,.84-.6,3.34,3.34,0,0,0,.3-1,3.63,3.63,0,0,0-.93-.16,2.23,2.23,0,0,0-.82.32A52,52,0,0,0,9.31,32.89v2.35A47,47,0,0,1,22.86,25.14Z"/><path class="cls-13" d="M60.47,63.06C48.62,58.9,37,67.59,37.93,79.87c.6,8.21,4.52,15,9.37,21.37.19.25.64.3,1,.45a4.56,4.56,0,0,0,0-1.16c-.08-.32-.39-.57-.57-.87-2-3.4-4.09-6.72-5.81-10.22A23.86,23.86,0,0,1,39.6,77.28,14.92,14.92,0,0,1,55.85,63.57c5,.51,9.19,2.83,12.87,6A28,28,0,0,1,77,83.07c.29-.44.58-.87.85-1.31a40.62,40.62,0,0,0-2.36-5.57A26,26,0,0,0,60.47,63.06Z"/><path class="cls-14" d="M85.82,30.59V28.9a85.17,85.17,0,0,0-8.29-7.49L73.32,20a80.55,80.55,0,0,1,8.9,7.05C83.47,28.21,84.67,29.39,85.82,30.59Z"/><path class="cls-15" d="M35.8,76.4A17.82,17.82,0,0,1,62.68,61c2,1.13,3.78,2.73,5.69,4,.35.24.91.16,1.38.22-.14-.41-.15-1-.43-1.22a40.81,40.81,0,0,0-3.26-2.6A20.87,20.87,0,0,0,53.48,57a19.7,19.7,0,0,0-16.83,9.61c-3.14,5-2.91,10.54-2,16a45.36,45.36,0,0,0,8.61,19.41c.8.32,1.62.62,2.46.91-1.21-1.61-2.42-3.22-3.47-4.93C38.2,91.43,35.66,84.29,35.8,76.4Z"/><path class="cls-16" d="M55.42,67.18A12.7,12.7,0,0,0,41.89,81.74a26.13,26.13,0,0,0,5,11.8c2,2.81,3.81,5.71,5.67,8.61l1.36-.56c-1.86-2.92-3.69-5.86-5.7-8.68-2.58-3.63-4.51-7.46-4.8-12A11.48,11.48,0,0,1,56.61,68.69a17.3,17.3,0,0,1,9.74,5,26.9,26.9,0,0,1,7.31,13.71l.91-1.1a29.27,29.27,0,0,0-4.11-9.71C66.86,71.27,62.16,67.55,55.42,67.18Z"/><path class="cls-17" d="M25.06,41.42c.35-.33.35-1.05.5-1.6-.51.15-1.15.14-1.5.46a48,48,0,0,0-9.48,11.6,42.33,42.33,0,0,0-4.45,11.63c.23,1.18.51,2.45.87,3.78a49.29,49.29,0,0,1,1.55-6.78C14.87,52.94,19.34,46.77,25.06,41.42Z"/><path class="cls-18" d="M36.14,16.85a48,48,0,0,1,23.64,4.23,65.27,65.27,0,0,1,26,22.19v-2A68.55,68.55,0,0,0,73.33,27.91C62.55,19.15,50.47,14.85,36.7,15.33l-2.35.76C34.55,17.08,35.41,16.9,36.14,16.85Z"/><path class="cls-19" d="M63.2,35.65c-6.79-2.95-13.83-4.83-21.29-3.22a103.27,103.27,0,0,0-9.95,3c-.39.12-.62.7-.92,1.07.54.11,1.08.26,1.63.33.17,0,.35-.17.53-.25,6.49-2.76,13.18-4.14,20.19-2.56C67,37.06,78.8,45,85.76,57.65c.06-1,.08-1.76.08-2.31A47.19,47.19,0,0,0,63.2,35.65Z"/><path class="cls-20" d="M36.57,38.63c.61-.22,1.89-.13,1.41-1.34-.11-.26-1.37-.06-2.08,0-.14,0-.27.13-.41.18-6.8,2.58-11.91,7.25-16,13.14a44.54,44.54,0,0,0-7.45,20.17c.34,1,.73,2,1.15,3a44.72,44.72,0,0,1,4.1-16C21.45,49.14,27.31,42.17,36.57,38.63Z"/><path class="cls-21" d="M55.7,72.22C52,72,48.24,74,46.89,76.94A8.5,8.5,0,0,0,49,86.74,33.79,33.79,0,0,1,57.58,99.9l1.07-.56A33.66,33.66,0,0,0,50,85.66a6.71,6.71,0,0,1-1.94-7.23,6.51,6.51,0,0,1,5.69-4.61c4.41-.69,7.81,1.33,10.69,4.4,3.28,3.52,4.89,7.88,5.91,12.49a1.7,1.7,0,0,0,0,.22c.31-.3.62-.61.91-.91a26.12,26.12,0,0,0-5.85-12.74A13.69,13.69,0,0,0,55.7,72.22Z"/><path class="cls-22" d="M73.15,45.88c-7.31-6.18-15.51-9.76-25.32-8.41-1.55.21-3.07.53-4.68.81.61,1.32.61,1.35,1.74,1.1a28.36,28.36,0,0,1,21,3.19A44.3,44.3,0,0,1,84.88,64c.16-.75.28-1.47.39-2.15A44.84,44.84,0,0,0,73.15,45.88Z"/><path class="cls-23" d="M29.23,22.27A43.67,43.67,0,0,1,46.06,21c7.22.68,13.56,3.66,19.43,7.7,3.4,2.33,6.64,4.88,10,7.27.37.27,1,.18,1.51.25-.23-.5-.34-1.17-.73-1.48-1.9-1.51-3.85-3-5.83-4.39-4.93-3.53-9.93-6.95-15.74-8.93a44.06,44.06,0,0,0-20.45-1.74,69.86,69.86,0,0,0-6.93,1.62C28,22.61,28,22.65,29.23,22.27Z"/><path class="cls-24" d="M30.3,19c.3-.13.46-.61.67-.94a4.87,4.87,0,0,0-1-.41,1.6,1.6,0,0,0-.72.16c-.81.21-1.61.45-2.41.69l-.81.27A48.08,48.08,0,0,0,9.3,28.19v2.1A49.92,49.92,0,0,1,27.88,19.7C28.68,19.44,29.53,19.31,30.3,19Z"/><path class="cls-25" d="M55.67,77c-2.19-.32-4.28.68-4.83,2.32s.27,3,2.41,4.25l.39.21a12.7,12.7,0,0,1,5,4.76,33.47,33.47,0,0,1,3.92,8.53l1-.62C61.77,90.53,59.39,85,53.41,81.89c-.58-.31-1.31-1.42-1.14-1.8a4.2,4.2,0,0,1,1.91-1.58,2.51,2.51,0,0,1,1.46,0c3.33.57,5.34,2.91,7,5.54a29.91,29.91,0,0,1,4.13,10q.48-.37,1-.78a29.16,29.16,0,0,0-5.16-11.77A10.47,10.47,0,0,0,55.67,77Z"/><path class="cls-26" d="M85.82,36.66V34.72c-.2-.23-.38-.46-.58-.67a80.45,80.45,0,0,0-13-11.35c-.62-.45-1.33-1.06-2,.36A70.7,70.7,0,0,1,85.82,36.66Z"/><path class="cls-27" d="M43.83,51.52a24.51,24.51,0,0,1,14.22-1l.74-.51a7.48,7.48,0,0,0-.76-.91,1.36,1.36,0,0,0-.7-.23,27.29,27.29,0,0,0-21,5c-.36.25-.4,1-.59,1.45a4.83,4.83,0,0,0,1.4-.22C39.38,53.89,41.5,52.46,43.83,51.52Z"/><path class="cls-28" d="M47.2,35.25l-1-.58c-1.51.29-2.87.51-4.2.85-.29.08-.44.64-.66,1,.34.18.71.56,1,.51a30.24,30.24,0,0,0,3.89-.83C46.65,36.06,46.9,35.57,47.2,35.25Z"/><path class="cls-29" d="M94.37,52.7V15.39L48,.07,47.82,0,.52,15.22l-.5.16V52.65A59.29,59.29,0,0,0,5,76.8c5.06,11.9,16.36,27.83,41.5,36.09l.33.11h.68l1.45-.1.09,0c19.6-6.45,32.81-18.25,40.36-36.07A59.65,59.65,0,0,0,94.37,52.7ZM85.66,75c-4.62,10.89-13.94,25.45-37,33l-1.23.09H47l-.2-.07c-23-7.57-33.39-22.15-38-33A54.79,54.79,0,0,1,4.19,53v-34l43.58-14,42.43,14V53A54.4,54.4,0,0,1,85.66,75Z"/><path class="cls-30" d="M85.82,24.15l-1.76-.58c.6.53,1.18,1.06,1.76,1.59Z"/><path class="cls-30" d="M34.73,32.44c6.31-2.15,12.7-3.13,19.33-1.8a52.34,52.34,0,0,1,15.46,6c6.54,3.7,12.18,8.23,16.3,14.14V48.69c-4.56-6.24-10.76-10.76-17.69-14.42-6.65-3.51-13.66-6-21.33-5.74a45.05,45.05,0,0,0-17,4.19c-9.19,4-16.21,10.1-20.53,18.44v3.27s0,.28,0,.66a40.23,40.23,0,0,1,2.35-4.63C17,41.47,24.93,35.77,34.73,32.44Z"/><path class="cls-30" d="M65.88,45.24a26.3,26.3,0,0,0-18.18-4.3,33.43,33.43,0,0,0-28.08,28.8,56.66,56.66,0,0,0,.08,15.17c.62.8,1.28,1.6,2,2.39a57.23,57.23,0,0,1-.14-16.48c1.19-8.95,4.9-16.75,12.32-22.36,9.07-6.85,18.9-8.56,29.13-3.11C73.57,51,80.26,59.31,83.31,70c.23-.68.43-1.34.61-2C81,58.55,74.9,51,65.88,45.24Z"/><path class="cls-30" d="M17.48,33.27c11.67-8.41,24.26-11.41,38.2-6.48.44.15,1-.11,1.53-.17,0-.18-.05-.37-.07-.55a2.27,2.27,0,0,0-.44-.38c-.4-.2-.81-.37-1.23-.53C49.67,23,43.71,22.7,37.58,23.38c-10.82,1.2-21,7.16-28.28,15.16V41A42.22,42.22,0,0,1,17.48,33.27Z"/><path class="cls-30" d="M47.81,53.28c-4.4.81-8,3.28-11.74,5.61a14.55,14.55,0,0,0-6.86,9.67,28.9,28.9,0,0,0-.84,6.18,50.39,50.39,0,0,0,5.52,22.7c.74.45,1.5.88,2.29,1.31a51.5,51.5,0,0,1-5.35-15.22c-.94-5.1-1.08-10.18,1-15.09C38,53.54,56.51,49.53,68.72,60.53c5.44,4.89,8.82,11,11.11,17.67.25-.49.5-1,.73-1.47a43.34,43.34,0,0,0-7.84-14.06C66.23,55,58,51.43,47.81,53.28Z"/><path class="cls-30" d="M60.78,46.63A17.38,17.38,0,0,0,55.72,45C40.4,42.37,28.1,54.16,25.28,64.21a48.25,48.25,0,0,0-.09,26.69c.65.61,1.33,1.21,2,1.79a50.8,50.8,0,0,1-1.89-20.61,29.7,29.7,0,0,1,9.83-19.65c7-6.33,17.63-8.3,25.21-4.32,8.11,4.24,14.57,10.29,18.39,18.82.82,1.84,1.54,3.72,2.3,5.59l.61,0a8.57,8.57,0,0,0-.18-1.77C78.05,59.71,70.75,52,60.78,46.63Z"/><path class="cls-30" d="M65,18.28c-.27-.43-.44-1.07-.82-1.25L64,16.94,48.07,11.67l-1.73.56a69.45,69.45,0,0,1,17.12,6C63.89,18.46,64.49,18.28,65,18.28Z"/><path class="cls-30" d="M22.27,34.33A47.9,47.9,0,0,1,38.85,28c.46-.09.81-.64,1.2-1-.5-.18-1-.58-1.51-.5a45.9,45.9,0,0,0-4.77,1.13C23.49,30.7,15.13,36,9.31,44.12v3A40.41,40.41,0,0,1,22.27,34.33Z"/><path class="cls-30" d="M9.31,24.15v1c.79-.64,1.59-1.25,2.4-1.82Z"/><path class="cls-30" d="M39.07,41c.14,0,.32-.1.39-.21a10.33,10.33,0,0,0,.45-.95c-.32-.14-.65-.42-1-.4a3.75,3.75,0,0,0-1.26.42,36.69,36.69,0,0,0-16,13.56c-4.66,6.93-6.53,14.67-7,23.5q.75,1.5,1.68,3.06a55.79,55.79,0,0,1,2.13-14.53C21.61,54.22,28,45.59,39.07,41Z"/><path class="cls-30" d="M22.86,25.14a2.28,2.28,0,0,0,.84-.6,3.34,3.34,0,0,0,.3-1,3.63,3.63,0,0,0-.93-.16,2.23,2.23,0,0,0-.82.32A52,52,0,0,0,9.31,32.89v2.35A47,47,0,0,1,22.86,25.14Z"/><path class="cls-30" d="M60.47,63.06C48.62,58.9,37,67.59,37.93,79.87c.6,8.21,4.52,15,9.37,21.37.19.25.64.3,1,.45a4.56,4.56,0,0,0,0-1.16c-.08-.32-.39-.57-.57-.87-2-3.4-4.09-6.72-5.81-10.22A23.86,23.86,0,0,1,39.6,77.28,14.92,14.92,0,0,1,55.85,63.57c5,.51,9.19,2.83,12.87,6A28,28,0,0,1,77,83.07c.29-.44.58-.87.85-1.31a40.62,40.62,0,0,0-2.36-5.57A26,26,0,0,0,60.47,63.06Z"/><path class="cls-30" d="M85.82,30.59V28.9a85.17,85.17,0,0,0-8.29-7.49L73.32,20a80.55,80.55,0,0,1,8.9,7.05C83.47,28.21,84.67,29.39,85.82,30.59Z"/><path class="cls-30" d="M35.8,76.4A17.82,17.82,0,0,1,62.68,61c2,1.13,3.78,2.73,5.69,4,.35.24.91.16,1.38.22-.14-.41-.15-1-.43-1.22a40.81,40.81,0,0,0-3.26-2.6A20.87,20.87,0,0,0,53.48,57a19.7,19.7,0,0,0-16.83,9.61c-3.14,5-2.91,10.54-2,16a45.36,45.36,0,0,0,8.61,19.41c.8.32,1.62.62,2.46.91-1.21-1.61-2.42-3.22-3.47-4.93C38.2,91.43,35.66,84.29,35.8,76.4Z"/><path class="cls-30" d="M55.42,67.18A12.7,12.7,0,0,0,41.89,81.74a26.13,26.13,0,0,0,5,11.8c2,2.81,3.81,5.71,5.67,8.61l1.36-.56c-1.86-2.92-3.69-5.86-5.7-8.68-2.58-3.63-4.51-7.46-4.8-12A11.48,11.48,0,0,1,56.61,68.69a17.3,17.3,0,0,1,9.74,5,26.9,26.9,0,0,1,7.31,13.71l.91-1.1a29.27,29.27,0,0,0-4.11-9.71C66.86,71.27,62.16,67.55,55.42,67.18Z"/><path class="cls-30" d="M25.06,41.42c.35-.33.35-1.05.5-1.6-.51.15-1.15.14-1.5.46a48,48,0,0,0-9.48,11.6,42.33,42.33,0,0,0-4.45,11.63c.23,1.18.51,2.45.87,3.78a49.29,49.29,0,0,1,1.55-6.78C14.87,52.94,19.34,46.77,25.06,41.42Z"/><path class="cls-30" d="M36.14,16.85a48,48,0,0,1,23.64,4.23,65.27,65.27,0,0,1,26,22.19v-2A68.55,68.55,0,0,0,73.33,27.91C62.55,19.15,50.47,14.85,36.7,15.33l-2.35.76C34.55,17.08,35.41,16.9,36.14,16.85Z"/><path class="cls-30" d="M63.2,35.65c-6.79-2.95-13.83-4.83-21.29-3.22a103.27,103.27,0,0,0-9.95,3c-.39.12-.62.7-.92,1.07.54.11,1.08.26,1.63.33.17,0,.35-.17.53-.25,6.49-2.76,13.18-4.14,20.19-2.56C67,37.06,78.8,45,85.76,57.65c.06-1,.08-1.76.08-2.31A47.19,47.19,0,0,0,63.2,35.65Z"/><path class="cls-30" d="M36.57,38.63c.61-.22,1.89-.13,1.41-1.34-.11-.26-1.37-.06-2.08,0-.14,0-.27.13-.41.18-6.8,2.58-11.91,7.25-16,13.14a44.54,44.54,0,0,0-7.45,20.17c.34,1,.73,2,1.15,3a44.72,44.72,0,0,1,4.1-16C21.45,49.14,27.31,42.17,36.57,38.63Z"/><path class="cls-30" d="M55.7,72.22C52,72,48.24,74,46.89,76.94A8.5,8.5,0,0,0,49,86.74,33.79,33.79,0,0,1,57.58,99.9l1.07-.56A33.66,33.66,0,0,0,50,85.66a6.71,6.71,0,0,1-1.94-7.23,6.51,6.51,0,0,1,5.69-4.61c4.41-.69,7.81,1.33,10.69,4.4,3.28,3.52,4.89,7.88,5.91,12.49a1.7,1.7,0,0,0,0,.22c.31-.3.62-.61.91-.91a26.12,26.12,0,0,0-5.85-12.74A13.69,13.69,0,0,0,55.7,72.22Z"/><path class="cls-30" d="M73.15,45.88c-7.31-6.18-15.51-9.76-25.32-8.41-1.55.21-3.07.53-4.68.81.61,1.32.61,1.35,1.74,1.1a28.36,28.36,0,0,1,21,3.19A44.3,44.3,0,0,1,84.88,64c.16-.75.28-1.47.39-2.15A44.84,44.84,0,0,0,73.15,45.88Z"/><path class="cls-30" d="M29.23,22.27A43.67,43.67,0,0,1,46.06,21c7.22.68,13.56,3.66,19.43,7.7,3.4,2.33,6.64,4.88,10,7.27.37.27,1,.18,1.51.25-.23-.5-.34-1.17-.73-1.48-1.9-1.51-3.85-3-5.83-4.39-4.93-3.53-9.93-6.95-15.74-8.93a44.06,44.06,0,0,0-20.45-1.74,69.86,69.86,0,0,0-6.93,1.62C28,22.61,28,22.65,29.23,22.27Z"/><path class="cls-30" d="M30.3,19c.3-.13.46-.61.67-.94a4.87,4.87,0,0,0-1-.41,1.6,1.6,0,0,0-.72.16c-.81.21-1.61.45-2.41.69l-.81.27A48.08,48.08,0,0,0,9.3,28.19v2.1A49.92,49.92,0,0,1,27.88,19.7C28.68,19.44,29.53,19.31,30.3,19Z"/><path class="cls-30" d="M55.67,77c-2.19-.32-4.28.68-4.83,2.32s.27,3,2.41,4.25l.39.21a12.7,12.7,0,0,1,5,4.76,33.47,33.47,0,0,1,3.92,8.53l1-.62C61.77,90.53,59.39,85,53.41,81.89c-.58-.31-1.31-1.42-1.14-1.8a4.2,4.2,0,0,1,1.91-1.58,2.51,2.51,0,0,1,1.46,0c3.33.57,5.34,2.91,7,5.54a29.91,29.91,0,0,1,4.13,10q.48-.37,1-.78a29.16,29.16,0,0,0-5.16-11.77A10.47,10.47,0,0,0,55.67,77Z"/><path class="cls-30" d="M85.82,36.66V34.72c-.2-.23-.38-.46-.58-.67a80.45,80.45,0,0,0-13-11.35c-.62-.45-1.33-1.06-2,.36A70.7,70.7,0,0,1,85.82,36.66Z"/><path class="cls-30" d="M43.83,51.52a24.51,24.51,0,0,1,14.22-1l.74-.51a7.48,7.48,0,0,0-.76-.91,1.36,1.36,0,0,0-.7-.23,27.29,27.29,0,0,0-21,5c-.36.25-.4,1-.59,1.45a4.83,4.83,0,0,0,1.4-.22C39.38,53.89,41.5,52.46,43.83,51.52Z"/><path class="cls-30" d="M47.2,35.25l-1-.58c-1.51.29-2.87.51-4.2.85-.29.08-.44.64-.66,1,.34.18.71.56,1,.51a30.24,30.24,0,0,0,3.89-.83C46.65,36.06,46.9,35.57,47.2,35.25Z"/><path class="cls-30" d="M94.37,52.7V15.39L48,.07,47.82,0,.52,15.22l-.5.16V52.65A59.29,59.29,0,0,0,5,76.8c5.06,11.9,16.36,27.83,41.5,36.09l.33.11h.68l1.45-.1.09,0c19.6-6.45,32.81-18.25,40.36-36.07A59.65,59.65,0,0,0,94.37,52.7ZM85.66,75c-4.62,10.89-13.94,25.45-37,33l-1.23.09H47l-.2-.07c-23-7.57-33.39-22.15-38-33A54.79,54.79,0,0,1,4.19,53v-34l43.58-14,42.43,14V53A54.4,54.4,0,0,1,85.66,75Z"/><path class="cls-31" d="M132.59,77.5h0A10.42,10.42,0,0,1,127,75.93a11.7,11.7,0,0,1-4-4.16A11.1,11.1,0,0,1,121.42,66h0V63.42a.25.25,0,0,1,.28-.28h6.39c.15,0,.23.1.23.28h0V66a4.55,4.55,0,0,0,1.25,3.22,4,4,0,0,0,3,1.34h0a3.91,3.91,0,0,0,3-1.37A4.53,4.53,0,0,0,136.87,66h0q0-2.1-2.74-3.65h0l-2.85-1.59-3.65-2h0A12,12,0,0,1,123,54.16a12.75,12.75,0,0,1-1.52-6.24h0A10.84,10.84,0,0,1,123,42.19a11.55,11.55,0,0,1,4.08-4,10.8,10.8,0,0,1,5.5-1.48h0a10.74,10.74,0,0,1,5.56,1.51,11.52,11.52,0,0,1,4,4,10.84,10.84,0,0,1,1.52,5.67h0v4.67a.2.2,0,0,1-.23.23h-6.39c-.15,0-.22-.07-.22-.23h0l-.06-4.67a4.39,4.39,0,0,0-1.26-3.25,4,4,0,0,0-3-1.26h0a4,4,0,0,0-3,1.34,4.52,4.52,0,0,0-1.25,3.17h0a5.7,5.7,0,0,0,.79,3.13,7.63,7.63,0,0,0,2.91,2.4h0c.19.12.56.31,1.11.59l1.8,1c.65.36,1.23.68,1.74.94s.83.44.94.52h0a13.48,13.48,0,0,1,4.5,3.9A9.5,9.5,0,0,1,143.76,66h0A11.34,11.34,0,0,1,138.2,76,10.73,10.73,0,0,1,132.59,77.5ZM171,76.93H152.54c-.15,0-.23-.09-.23-.28h0l.06-39.16a.21.21,0,0,1,.23-.23h18.29c.15,0,.23.1.23.28h0v6.39a.2.2,0,0,1-.23.23H159.21v8.89h11.68a.2.2,0,0,1,.23.22h0l.06,6.45c0,.15-.08.22-.23.22H159.21v10H171c.15,0,.23.1.23.28h0v6.5a.2.2,0,0,1-.23.23Zm19.44.57h0a10.52,10.52,0,0,1-5.67-1.57,11.39,11.39,0,0,1-4-4.19,11.66,11.66,0,0,1-1.48-5.87h0l.05-17.78a11.46,11.46,0,0,1,5.45-9.89,10.61,10.61,0,0,1,5.67-1.57h0A10.61,10.61,0,0,1,196,38.17a11.44,11.44,0,0,1,5.47,9.92h0v2.62c0,.16-.07.23-.22.23h-6.39a.2.2,0,0,1-.23-.23h0V48.09a4.76,4.76,0,0,0-1.22-3.25,4,4,0,0,0-3.05-1.37h0a3.75,3.75,0,0,0-3.14,1.4,5.11,5.11,0,0,0-1.08,3.22h0V65.87a4.78,4.78,0,0,0,1.23,3.42,3.9,3.9,0,0,0,3,1.31h0a3.84,3.84,0,0,0,3.05-1.45,5,5,0,0,0,1.22-3.28h0V63.25a.21.21,0,0,1,.23-.23h6.44a.21.21,0,0,1,.23.23h0v2.62a11.48,11.48,0,0,1-1.51,5.87,11.71,11.71,0,0,1-4,4.19A10.37,10.37,0,0,1,190.39,77.5Zm30.72,0h0a10.46,10.46,0,0,1-5.58-1.57,11.55,11.55,0,0,1-4.08-4.19A11.25,11.25,0,0,1,209.94,66h0l.11-28.5a.21.21,0,0,1,.23-.23h6.39c.15,0,.22.08.22.23h0V66a4.65,4.65,0,0,0,1.23,3.27,3.86,3.86,0,0,0,3,1.34h0a3.93,3.93,0,0,0,3-1.34A4.65,4.65,0,0,0,225.39,66h0V37.49c0-.15.07-.23.22-.23H232a.21.21,0,0,1,.23.23h0l.11,28.5a11.53,11.53,0,0,1-5.56,10A10.68,10.68,0,0,1,221.11,77.5Zm27-.57h-6.44c-.15,0-.23-.09-.23-.28h0l.12-39.16a.21.21,0,0,1,.23-.23h11.51a11.14,11.14,0,0,1,5.67,1.51,11.61,11.61,0,0,1,4.13,4,10.78,10.78,0,0,1,1.54,5.72h0a11,11,0,0,1-.62,3.79,11.52,11.52,0,0,1-1.49,2.85A9.74,9.74,0,0,1,261,56.92h0A11.64,11.64,0,0,1,264,65h0l.06,11.69c0,.19-.1.28-.29.28h-6.44c-.15,0-.22-.05-.22-.17h0V65a5,5,0,0,0-1.46-3.56,4.77,4.77,0,0,0-3.56-1.51h-3.76l-.06,16.76c0,.19-.08.28-.23.28Zm.29-32.83v8.95h4.9a4.36,4.36,0,0,0,3.13-1.31,4.28,4.28,0,0,0,1.37-3.2h0a4.25,4.25,0,0,0-1.34-3.13,4.38,4.38,0,0,0-3.16-1.31h-4.9Zm43.72,32.83H273.67c-.15,0-.23-.09-.23-.28h0l.05-39.16a.21.21,0,0,1,.23-.23H292c.15,0,.23.1.23.28h0v6.39a.2.2,0,0,1-.23.23H280.33v8.89H292a.2.2,0,0,1,.23.22h0l.05,6.45a.19.19,0,0,1-.22.22H280.33v10h11.75c.15,0,.22.1.22.28h0v6.5c0,.16-.07.23-.22.23Zm19.2.57h0a10.42,10.42,0,0,1-5.61-1.57,11.7,11.7,0,0,1-4.05-4.16A11.1,11.1,0,0,1,300.11,66h0V63.42a.26.26,0,0,1,.29-.28h6.38c.15,0,.23.1.23.28h0V66a4.55,4.55,0,0,0,1.25,3.22,4,4,0,0,0,3,1.34h0a4,4,0,0,0,3-1.37A4.57,4.57,0,0,0,315.56,66h0q0-2.1-2.74-3.65h0L310,60.8l-3.64-2h0a12.07,12.07,0,0,1-4.65-4.59,12.75,12.75,0,0,1-1.51-6.24h0a10.84,10.84,0,0,1,1.54-5.73,11.52,11.52,0,0,1,4.07-4,10.8,10.8,0,0,1,5.5-1.48h0a10.72,10.72,0,0,1,5.56,1.51,11.55,11.55,0,0,1,4.05,4,10.84,10.84,0,0,1,1.51,5.67h0v4.67a.2.2,0,0,1-.23.23h-6.38a.2.2,0,0,1-.23-.23h0l-.06-4.67a4.43,4.43,0,0,0-1.25-3.25,4,4,0,0,0-3-1.26h0a4,4,0,0,0-3,1.34A4.52,4.52,0,0,0,307,47.92h0a5.7,5.7,0,0,0,.8,3.13,7.67,7.67,0,0,0,2.9,2.4h0c.19.12.57.31,1.12.59l1.79,1c.65.36,1.23.68,1.74.94s.83.44.94.52h0a13.48,13.48,0,0,1,4.5,3.9A9.44,9.44,0,0,1,322.46,66h0A11.34,11.34,0,0,1,316.9,76,10.76,10.76,0,0,1,311.28,77.5Zm26.4-.57h-6.44c-.15,0-.23-.09-.23-.28h0l.05-39.16c0-.15.1-.23.29-.23h6.33c.19,0,.28.08.28.23h0L337.9,53h8.55V37.49a.21.21,0,0,1,.23-.23H353c.19,0,.28.08.28.23h0l.12,39.16c0,.19-.1.28-.29.28h-6.38c-.19,0-.29-.09-.29-.28h0V59.89H337.9V76.65c0,.19-.07.28-.22.28Zm31.69,0h-6.44c-.19,0-.29-.09-.29-.28h0l.06-39.16a.21.21,0,0,1,.23-.23h6.38a.21.21,0,0,1,.23.23h0l.06,39.16c0,.19-.08.28-.23.28Zm28.44,0H379.4c-.15,0-.23-.09-.23-.28h0l.06-39.16a.21.21,0,0,1,.23-.23h18.29c.15,0,.23.1.23.28h0v6.39a.2.2,0,0,1-.23.23H386.07v8.89h11.68a.2.2,0,0,1,.23.22h0l.06,6.45c0,.15-.08.22-.23.22H386.07v10h11.74c.15,0,.23.1.23.28h0v6.5a.2.2,0,0,1-.23.23Zm28.5,0H407.9c-.15,0-.23-.09-.23-.28h0l.06-39.11a.25.25,0,0,1,.28-.28h6.33a.26.26,0,0,1,.29.28h0l-.06,32.38h11.74a.26.26,0,0,1,.29.28h0v6.45c0,.19-.1.28-.29.28Zm19-.06-10.2.06c-.19,0-.29-.09-.29-.28h0L435,37.49c0-.15.07-.23.22-.23h0l10.66-.06a10.67,10.67,0,0,1,5.73,1.48,11.7,11.7,0,0,1,4.13,4.14,11,11,0,0,1,1.54,5.72h0V64.9a11.65,11.65,0,0,1-1.59,6,12.08,12.08,0,0,1-4.28,4.3,11.86,11.86,0,0,1-6,1.65ZM441.87,44.1l-.06,25.82h3.54a4.78,4.78,0,0,0,3.56-1.48,4.89,4.89,0,0,0,1.46-3.54h0V48.49A4.36,4.36,0,0,0,449,45.32,4.14,4.14,0,0,0,445.86,44h0Z"/></g></g></svg>