<svg viewBox="0 0 575 575" class="roots-wrapper"><g transform="rotate(0 0 0)"><svg viewBoxSize="575" data-root-id="5974907786119" xmlns="http://www.w3.org/2000/svg" xmlns:xlink="http://www.w3.org/1999/xlink" id="Layer_1" dataName="Layer 1" viewBox="51.043922424316406 108.68000030517578 415.0914001464844 496.949951171875" height="113" width="94.38646371830124" y="231" x="45" preserveAspectRatio="xMinYMin" zoom="1" editorType="buyer" data-layer-role="icon" style="position: absolute; height: 113px; width: 94.3865px; top: 231px; left: 45px;"><linearGradient id="linear-gradient" x1="461.93" y1="158.1" x2="170.54" y2="608.74" gradientUnits="userSpaceOnUse" name="Layer %{number}" zoom="1" data-layer-id="7109831886119"><stop offset="0" stop-color="#64ddfa"></stop><stop offset="0.13" stop-color="#56d7fa"></stop><stop offset="0.72" stop-color="#1dbbf8"></stop><stop offset="1" stop-color="#06b0f7"></stop></linearGradient><linearGradient id="linear-gradient-2" x1="399.06" y1="117.45" x2="107.67" y2="568.08" xlink:href="#linear-gradient" name="Layer %{number}" zoom="1" data-layer-id="6918959186119"></linearGradient><linearGradient id="linear-gradient-3" x1="443.3" y1="146.05" x2="151.91" y2="596.69" xlink:href="#linear-gradient" name="Layer %{number}" zoom="1" data-layer-id="2257290286119"></linearGradient><linearGradient id="linear-gradient-4" x1="318.09" y1="65.09" x2="26.7" y2="515.72" xlink:href="#linear-gradient" name="Layer %{number}" zoom="1" data-layer-id="1597979486119"></linearGradient><linearGradient id="linear-gradient-5" x1="464" y1="159.44" x2="172.61" y2="610.07" xlink:href="#linear-gradient" name="Layer %{number}" zoom="1" data-layer-id="9692073386119"></linearGradient><linearGradient id="linear-gradient-6" x1="450.73" y1="150.86" x2="159.35" y2="601.5" xlink:href="#linear-gradient" name="Layer %{number}" zoom="1" data-layer-id="0734003586119"></linearGradient><linearGradient id="linear-gradient-7" x1="352.91" y1="87.61" x2="61.52" y2="538.24" xlink:href="#linear-gradient" name="Layer %{number}" zoom="1" data-layer-id="0535868786119"></linearGradient><linearGradient id="linear-gradient-8" x1="297.51" y1="51.79" x2="6.12" y2="502.42" xlink:href="#linear-gradient" name="Layer %{number}" zoom="1" data-layer-id="8232019286119"></linearGradient><linearGradient id="linear-gradient-9" x1="229.87" y1="8.05" x2="-61.52" y2="458.68" xlink:href="#linear-gradient" name="Layer %{number}" zoom="1" data-layer-id="1230097486119"></linearGradient><linearGradient id="linear-gradient-10" x1="342.34" y1="80.77" x2="50.95" y2="531.41" xlink:href="#linear-gradient" name="Layer %{number}" zoom="1" data-layer-id="9067951486119"></linearGradient><linearGradient id="linear-gradient-11" x1="258.41" y1="26.5" x2="-32.98" y2="477.13" xlink:href="#linear-gradient" name="Layer %{number}" zoom="1" data-layer-id="8507729586119"></linearGradient><linearGradient id="linear-gradient-12" x1="484.74" y1="172.85" x2="193.35" y2="623.49" xlink:href="#linear-gradient" name="Layer %{number}" zoom="1" data-layer-id="1887144486119"></linearGradient><linearGradient id="linear-gradient-13" x1="447.15" y1="148.55" x2="155.76" y2="599.18" xlink:href="#linear-gradient" name="Layer %{number}" zoom="1" data-layer-id="6816831186119"></linearGradient><linearGradient id="linear-gradient-14" x1="447.47" y1="148.75" x2="156.09" y2="599.39" xlink:href="#linear-gradient" name="Layer %{number}" zoom="1" data-layer-id="4528114686119"></linearGradient><linearGradient id="linear-gradient-15" x1="492.88" y1="178.11" x2="201.49" y2="628.75" xlink:href="#linear-gradient" name="Layer %{number}" zoom="1" data-layer-id="1500562886119"></linearGradient><linearGradient id="linear-gradient-16" x1="308.67" y1="59" x2="17.28" y2="509.64" xlink:href="#linear-gradient" name="Layer %{number}" zoom="1" data-layer-id="0794755286119"></linearGradient><linearGradient id="linear-gradient-17" x1="395.49" y1="115.14" x2="104.1" y2="565.77" xlink:href="#linear-gradient" name="Layer %{number}" zoom="1" data-layer-id="0958630186119"></linearGradient><linearGradient id="linear-gradient-18" x1="425.11" y1="134.29" x2="133.73" y2="584.93" xlink:href="#linear-gradient" name="Layer %{number}" zoom="1" data-layer-id="2146948586119"></linearGradient><linearGradient id="linear-gradient-19" x1="327.65" y1="71.27" x2="36.26" y2="521.91" xlink:href="#linear-gradient" name="Layer %{number}" zoom="1" data-layer-id="4062577686119"></linearGradient><linearGradient id="linear-gradient-20" x1="500.23" y1="182.87" x2="208.84" y2="633.5" xlink:href="#linear-gradient" name="Layer %{number}" zoom="1" data-layer-id="7124777986119"></linearGradient><linearGradient id="linear-gradient-21" x1="450.73" y1="150.86" x2="159.34" y2="601.49" xlink:href="#linear-gradient" name="Layer %{number}" zoom="1" data-layer-id="5156185786119"></linearGradient><linearGradient id="linear-gradient-22" x1="368.98" y1="98" x2="77.6" y2="548.64" xlink:href="#linear-gradient" name="Layer %{number}" zoom="1" data-layer-id="1304775386119"></linearGradient><linearGradient id="linear-gradient-23" x1="258.54" y1="26.59" x2="-32.84" y2="477.22" xlink:href="#linear-gradient" name="Layer %{number}" zoom="1" data-layer-id="1381500286119"></linearGradient><linearGradient id="linear-gradient-24" x1="506.43" y1="186.87" x2="215.04" y2="637.51" xlink:href="#linear-gradient" name="Layer %{number}" zoom="1" data-layer-id="4795326586119"></linearGradient><linearGradient id="linear-gradient-25" x1="451.52" y1="151.37" x2="160.13" y2="602" xlink:href="#linear-gradient" name="Layer %{number}" zoom="1" data-layer-id="5435791786119"></linearGradient><linearGradient id="linear-gradient-26" x1="401.14" y1="118.79" x2="109.75" y2="569.43" xlink:href="#linear-gradient" name="Layer %{number}" zoom="1" data-layer-id="8737577186119"></linearGradient><linearGradient id="linear-gradient-27" x1="358.8" y1="91.42" x2="67.41" y2="542.05" xlink:href="#linear-gradient" name="Layer %{number}" zoom="1" data-layer-id="5776237386119"></linearGradient><linearGradient id="linear-gradient-28" x1="382.66" y1="106.84" x2="91.27" y2="557.48" xlink:href="#linear-gradient" name="Layer %{number}" zoom="1" data-layer-id="3179037786119"></linearGradient><path class="cls-1" d="M429.25,439.4c-20.49,48.33-61.83,112.92-164,146.53l-5.49.38h-2.19l-.89-.29C154.41,552.4,108.49,487.74,88,439.41c-22.23-52.34-20.27-96.15-20.17-98v-151l193.36-62.22,188.27,62.25V341.57C449.58,344.87,451.07,388,429.25,439.4Z" name="Layer %{number}" zoom="1" data-layer-id="0192863386119" style="fill: rgb(42, 44, 68);"></path><path class="cls-2" d="M428.45,214.9l-7.73-2.55q3.94,3.45,7.73,7Z" name="Layer %{number}" zoom="1" data-layer-id="1957036486119" style="fill: url(&quot;#linear-gradient&quot;);"></path><path class="cls-3" d="M203.77,251.35c27.76-9.46,55.85-13.75,85-7.93,24.24,4.84,46.65,14.45,68,26.5,28.78,16.24,53.58,36.17,71.7,62.18v-9.28c-20.06-27.45-47.31-47.32-77.8-63.44-29.24-15.44-60.07-26.14-93.82-25.23-26.18.7-50.85,8-74.56,18.44C141.87,270.35,111,297,92,333.67v14.38c0,.23-.06,1.25-.07,2.92a172.2,172.2,0,0,1,10.37-20.39C125.84,291.07,160.68,266,203.77,251.35Z" name="Layer %{number}" zoom="1" data-layer-id="6154025686119" style="fill: url(&quot;#linear-gradient-2&quot;);"></path><path class="cls-4" d="M340.77,307.63c-24.36-15.53-51.13-23-79.94-18.9-64.48,9.22-115.08,61.9-123.49,126.65a248.94,248.94,0,0,0,.32,66.7q4.09,5.28,8.73,10.54a250.68,250.68,0,0,1-.62-72.47c5.24-39.36,21.53-73.7,54.19-98.34,39.9-30.12,83.1-37.65,128.12-13.68,46.52,24.78,75.93,61.38,89.35,108.24,1-3,1.87-5.91,2.68-8.77C407.06,366.18,380.46,332.92,340.77,307.63Z" name="Layer %{number}" zoom="1" data-layer-id="4660866386119" style="fill: url(&quot;#linear-gradient-3&quot;);"></path><path class="cls-5" d="M127.93,255c51.29-37,106.67-50.17,168-28.52,1.91.67,4.45-.45,6.7-.74-.09-.8-.19-1.6-.28-2.41a10.22,10.22,0,0,0-1.95-1.68c-1.75-.86-3.57-1.61-5.4-2.3-25.53-9.6-51.71-10.86-78.67-7.87-47.59,5.29-92.43,31.49-124.37,66.67V289A184.66,184.66,0,0,1,127.93,255Z" name="Layer %{number}" zoom="1" data-layer-id="9377499486119" style="fill: url(&quot;#linear-gradient-4&quot;);"></path><path class="cls-6" d="M261.32,343c-19.39,3.56-35.33,14.43-51.64,24.65-16.11,10.09-26.29,24.13-30.18,42.55-1.89,8.93-3.79,18.12-3.69,27.17.4,36.17,8.69,69.4,24.27,99.81,3.25,2,6.62,3.88,10.07,5.76a225.79,225.79,0,0,1-23.51-66.9c-4.16-22.45-4.75-44.78,4.25-66.38,27.31-65.52,108.69-83.15,162.37-34.8,23.91,21.54,38.8,48.32,48.84,77.72q1.69-3.25,3.24-6.45c-7.76-22.45-18.82-43.39-34.48-61.85C342.31,350.64,306.06,334.84,261.32,343Z" name="Layer %{number}" zoom="1" data-layer-id="7611509286119" style="fill: url(&quot;#linear-gradient-5&quot;);"></path><path class="cls-7" d="M318.35,313.77a74.07,74.07,0,0,0-22.26-7.3C228.73,295,174.64,346.88,162.23,391.06c-11.38,40.49-11.1,79.59-.42,117.4q4.29,4,8.95,7.87-13.37-42.78-8.31-90.65c3.57-34.16,17.57-63.35,43.2-86.44,30.89-27.83,77.54-36.47,110.9-19,35.66,18.68,64.08,45.29,80.86,82.79,3.62,8.08,6.77,16.37,10.14,24.56l2.68-.11c-.25-2.61-.06-5.35-.82-7.79C394.31,371.29,362.2,337.35,318.35,313.77Z" name="Layer %{number}" zoom="1" data-layer-id="8011554886119" style="fill: url(&quot;#linear-gradient-6&quot;);"></path><path class="cls-8" d="M337,189.07c-1.19-1.88-1.94-4.69-3.64-5.51l-.81-.37L262.45,160l-7.62,2.45a307.39,307.39,0,0,1,75.3,26.47C332,189.86,334.67,189.06,337,189.07Z" name="Layer %{number}" zoom="1" data-layer-id="8179917986119" style="fill: url(&quot;#linear-gradient-7&quot;);"></path><path class="cls-9" d="M149,259.64c22.5-14.1,46.95-22.86,72.91-27.87,2-.38,3.53-2.8,5.28-4.26-2.22-.8-4.62-2.57-6.64-2.21a192.09,192.09,0,0,0-21,5C154.33,243.69,117.59,267,92,302.73v13C105.94,293.64,124.77,274.82,149,259.64Z" name="Layer %{number}" zoom="1" data-layer-id="7576614386119" style="fill: url(&quot;#linear-gradient-8&quot;);"></path><path class="cls-10" d="M92,214.88v4.57q5.16-4.2,10.56-8Z" name="Layer %{number}" zoom="1" data-layer-id="8850686386119" style="fill: url(&quot;#linear-gradient-9&quot;);"></path><path class="cls-11" d="M222.86,289.05c.61-.24,1.42-.44,1.7-.92a45.12,45.12,0,0,0,2-4.2c-1.41-.63-2.86-1.84-4.23-1.76-1.87.11-3.74,1.08-5.53,1.87-29.46,12.84-52.73,33.07-70.55,59.61-20.48,30.5-28.69,64.5-30.73,103.35,2.21,4.4,4.67,8.9,7.39,13.45a246.54,246.54,0,0,1,9.34-63.87C146.07,347.11,174,309.18,222.86,289.05Z" name="Layer %{number}" zoom="1" data-layer-id="0880726786119" style="fill: url(&quot;#linear-gradient-10&quot;);"></path><path class="cls-12" d="M151.58,219.23a9.61,9.61,0,0,0,3.69-2.62c.84-1.23.91-3,1.32-4.52a15.21,15.21,0,0,0-4.08-.74,10.3,10.3,0,0,0-3.62,1.43A229.23,229.23,0,0,0,92,253.32v10.33A206.39,206.39,0,0,1,151.58,219.23Z" name="Layer %{number}" zoom="1" data-layer-id="1840960886119" style="fill: url(&quot;#linear-gradient-11&quot;);"></path><path class="cls-13" d="M317,386c-52.13-18.27-103.11,19.92-99.16,73.91,2.64,36.12,19.9,66,41.23,94,.84,1.1,2.82,1.34,4.27,2,.08-1.72.53-3.53.14-5.14-.33-1.39-1.71-2.5-2.47-3.81C252.37,532,243,517.43,235.46,502c-8.2-16.67-11.44-34.75-10.28-53.48,2.26-36.18,35.48-63.87,71.5-60.26,22.16,2.23,40.38,12.42,56.56,26.51C371.87,431,382.65,451.5,389.47,474c1.28-1.92,2.53-3.84,3.72-5.75a176.3,176.3,0,0,0-10.38-24.49C368.61,415.85,346.41,396.36,317,386Z" name="Layer %{number}" zoom="1" data-layer-id="3868655486119" style="fill: url(&quot;#linear-gradient-12&quot;);"></path><path class="cls-14" d="M428.45,243.22v-7.45A372.34,372.34,0,0,0,392,202.85l-18.53-6.12a352.23,352.23,0,0,1,39.16,31Q420.86,235.26,428.45,243.22Z" name="Layer %{number}" zoom="1" data-layer-id="4433791686119" style="fill: url(&quot;#linear-gradient-13&quot;);"></path><path class="cls-15" d="M208.47,444.65c1.07-61.41,64.85-98,118.24-67.72,8.85,5,16.59,12,25,17.76,1.53,1.05,4,.67,6.08.95-.6-1.82-.67-4.24-1.9-5.35a177.25,177.25,0,0,0-14.31-11.46c-16.48-11.92-34.5-19.57-55.36-19.42-32,1.22-57,15.21-74,42.24-13.81,21.89-12.81,46.35-8.67,70.53,5.48,32,19.2,60,37.87,85.38,3.52,1.39,7.13,2.72,10.81,4-5.3-7.09-10.61-14.17-15.23-21.68C219.06,510.77,207.87,479.38,208.47,444.65Z" name="Layer %{number}" zoom="1" data-layer-id="2861169886119" style="fill: url(&quot;#linear-gradient-14&quot;);"></path><path class="cls-16" d="M294.78,404.11c-36.65-2-64.13,27.87-59.53,64.05,2.47,19.4,10.72,36.07,21.8,51.88,8.66,12.37,16.73,25.14,24.9,37.86,2-.8,4-1.63,6-2.45-8.17-12.84-16.24-25.76-25.05-38.15-11.35-16-19.83-32.83-21.12-52.74A50.61,50.61,0,0,1,300,410.75c16.95,2.47,30.9,10.57,42.85,22.21,17.35,16.9,26.9,37.6,32.15,60.3q2-2.42,4-4.84c-3.58-15.11-9.24-29.52-18.07-42.71C345.1,422.13,324.4,405.75,294.78,404.11Z" name="Layer %{number}" zoom="1" data-layer-id="5644777786120" style="fill: url(&quot;#linear-gradient-15&quot;);"></path><path class="cls-17" d="M161.25,290.82c1.55-1.45,1.52-4.61,2.22-7-2.24.63-5.08.6-6.61,2-16.34,15-30.68,31.61-41.71,51A186.72,186.72,0,0,0,95.61,388c1,5.19,2.24,10.75,3.82,16.6a217.55,217.55,0,0,1,6.8-29.81C116.43,341.49,136.09,314.36,161.25,290.82Z" name="Layer %{number}" zoom="1" data-layer-id="1118699486120" style="fill: url(&quot;#linear-gradient-16&quot;);"></path><path class="cls-18" d="M210,182.77c36.13-2.08,71.18,3.12,103.93,18.6,47.25,22.35,85.13,55.36,114.51,97.6V290a302.41,302.41,0,0,0-54.9-58.58C326.13,192.9,273,174,212.43,176.11l-10.34,3.33C203,183.81,206.77,183,210,182.77Z" name="Layer %{number}" zoom="1" data-layer-id="7088656786120" style="fill: url(&quot;#linear-gradient-17&quot;);"></path><path class="cls-19" d="M329,265.47c-29.89-13-60.83-21.27-93.63-14.19-14.86,3.2-29.27,8.5-43.79,13.16-1.68.55-2.72,3.1-4.05,4.72,2.4.5,4.78,1.13,7.21,1.44.72.09,1.53-.75,2.33-1.09,28.52-12.14,57.93-18.23,88.76-11.28,59.64,13.44,111.77,48.41,142.35,104,.29-4.3.37-7.76.38-10.19C406.38,314.11,373.56,284.91,329,265.47Z" name="Layer %{number}" zoom="1" data-layer-id="1200286886120" style="fill: url(&quot;#linear-gradient-18&quot;);"></path><path class="cls-20" d="M211.87,278.58c2.69-1,8.31-.59,6.19-5.92-.45-1.11-6-.25-9.14-.19-.6,0-1.17.54-1.79.78-29.93,11.33-52.38,31.87-70.28,57.77-18.91,27.36-28.83,57.25-32.75,88.73q2.24,6.5,5.05,13.27c1.95-24.21,7.21-47.84,18-70.26C145.36,324.8,171.14,294.12,211.87,278.58Z" name="Layer %{number}" zoom="1" data-layer-id="1259133986120" style="fill: url(&quot;#linear-gradient-19&quot;);"></path><path class="cls-21" d="M296,426.29c-16.35-1-32.79,7.74-38.73,20.76-6.48,14.23-3.18,31.4,9.44,43.11C284.25,506.45,296,526.11,304.27,548c1.6-.8,3.15-1.62,4.7-2.43-8.07-22.71-19.8-43.26-37.9-60.18-9.17-8.57-12.28-19.6-8.52-31.77s12.92-18.46,25-20.31c19.39-3,34.36,5.87,47,19.37,14.43,15.48,21.52,34.66,26,54.94.07.31.12.64.19.95,1.38-1.33,2.73-2.68,4-4C361,484,353.21,465,339,448.55,327.75,435.5,313.62,427.39,296,426.29Z" name="Layer %{number}" zoom="1" data-layer-id="9515482186120" style="fill: url(&quot;#linear-gradient-20&quot;);"></path><path class="cls-22" d="M372.75,310.45c-32.16-27.18-68.21-42.9-111.37-37-6.79.93-13.51,2.35-20.58,3.59,2.68,5.79,2.71,5.91,7.67,4.84,32.54-7,63.55-2.87,92.29,14,39.72,23.32,67.07,55.14,83.58,94.27.67-3.29,1.23-6.46,1.7-9.46A197.39,197.39,0,0,0,372.75,310.45Z" name="Layer %{number}" zoom="1" data-layer-id="0546135886120" style="fill: url(&quot;#linear-gradient-21&quot;);"></path><path class="cls-23" d="M179.61,206.64c24.25-7.27,49-8.13,74-5.76,31.75,3,59.62,16.12,85.46,33.87,14.93,10.26,29.18,21.49,43.91,32,1.64,1.17,4.4.77,6.65,1.1-1-2.21-1.51-5.14-3.23-6.51-8.34-6.67-16.92-13.08-25.61-19.31-21.68-15.53-43.69-30.59-69.24-39.27-29.3-10-59.44-11.82-89.91-7.68-10.18,1.39-20.11,4.64-30.48,7.12C174,208.13,174.07,208.3,179.61,206.64Z" name="Layer %{number}" zoom="1" data-layer-id="2151881786120" style="fill: url(&quot;#linear-gradient-22&quot;);"></path><path class="cls-24" d="M184.3,192.19c1.32-.55,2-2.7,2.93-4.12a22.2,22.2,0,0,0-4.25-1.82c-1-.2-2.11.41-3.16.69-3.59.95-7.11,2-10.59,3.07l-3.6,1.16c-28.32,9.34-52.81,23.26-73.68,41.5v9.2q33.58-30.85,81.72-46.55C177.19,194.18,180.91,193.6,184.3,192.19Z" name="Layer %{number}" zoom="1" data-layer-id="1962174786120" style="fill: url(&quot;#linear-gradient-23&quot;);"></path><path class="cls-25" d="M295.89,447.26c-9.66-1.42-18.85,3-21.27,10.23q-3.5,10.5,10.61,18.65c.56.33,1.13.65,1.72.94A55.75,55.75,0,0,1,309,498c7.29,11.83,13.56,24.14,17.25,37.54,1.42-.91,2.84-1.81,4.22-2.73-7.78-26-18.23-50.19-44.54-64-2.55-1.34-5.77-6.26-5-7.92,1.32-3,5.17-5.21,8.39-6.95,1.65-.89,4.29-.28,6.4.08,14.68,2.51,23.48,12.8,30.86,24.38a131.52,131.52,0,0,1,18.13,44.12q2.16-1.69,4.23-3.42c-3.86-18.7-11-36.17-22.67-51.78C318.61,457.11,309.13,449.21,295.89,447.26Z" name="Layer %{number}" zoom="1" data-layer-id="3789937986120" style="fill: url(&quot;#linear-gradient-24&quot;);"></path><path class="cls-26" d="M428.45,269.92v-8.57c-.85-1-1.68-2-2.54-2.91-17-18.94-36.42-35.11-57-49.95-2.7-1.94-5.83-4.63-8.82,1.62C386.32,227.33,409.33,247.09,428.45,269.92Z" name="Layer %{number}" zoom="1" data-layer-id="0032953986120" style="fill: url(&quot;#linear-gradient-25&quot;);"></path><path class="cls-27" d="M243.78,335.26c19.7-8,40.29-8.76,62.57-4.48l3.22-2.27a31.08,31.08,0,0,0-3.34-4,6.22,6.22,0,0,0-3.07-1c-33.81-5.52-64.57,2.08-92.34,21.89-1.58,1.13-1.76,4.23-2.6,6.41,2.07-.31,4.41-.1,6.17-1C224.23,345.68,233.57,339.39,243.78,335.26Z" name="Layer %{number}" zoom="1" data-layer-id="6536825386120" style="fill: url(&quot;#linear-gradient-26&quot;);"></path><path class="cls-28" d="M258.63,263.72l-4.29-2.56c-6.62,1.28-12.62,2.22-18.47,3.75-1.25.33-1.94,2.78-2.9,4.25,1.51.8,3.15,2.45,4.5,2.24a136.88,136.88,0,0,0,17.12-3.67C256.19,267.28,257.3,265.1,258.63,263.72Z" name="Layer %{number}" zoom="1" data-layer-id="3634233886120" style="fill: url(&quot;#linear-gradient-27&quot;);"></path><path class="cls-29" d="M466.05,340.46V176.37L262.33,109l-1-.32-208,66.93-2.19.7V340.23C51,343.26,49,390,73,446.44,95.24,498.78,144.94,568.8,255.5,605.16l1.44.47h3l6.38-.44.37-.12C352.89,576.71,411,524.82,444.2,446.43,467.57,391.42,466.27,345.39,466.05,340.46Zm-38.3,98.22c-20.31,47.9-61.28,111.93-162.61,145.24l-5.44.38h-2.17l-.89-.3C155.32,550.69,109.81,486.59,89.47,438.69c-22-51.88-20.09-95.31-20-97.12V191.86l191.66-61.67,186.61,61.7V341.71C447.9,345,449.38,387.77,427.75,438.68Z" name="Layer %{number}" zoom="1" data-layer-id="5045060386120" style="fill: url(&quot;#linear-gradient-28&quot;);"></path><path class="cls-30" d="M428.45,214.9l-7.73-2.55q3.94,3.45,7.73,7Z" name="Layer %{number}" zoom="1" data-layer-id="1962746886120" style="fill: rgb(255, 255, 255); fill-opacity: 0;"></path><path class="cls-30" d="M203.77,251.35c27.76-9.46,55.85-13.75,85-7.93,24.24,4.84,46.65,14.45,68,26.5,28.78,16.24,53.58,36.17,71.7,62.18v-9.28c-20.06-27.45-47.31-47.32-77.8-63.44-29.24-15.44-60.07-26.14-93.82-25.23-26.18.7-50.85,8-74.56,18.44C141.87,270.35,111,297,92,333.67v14.38c0,.23-.06,1.25-.07,2.92a172.2,172.2,0,0,1,10.37-20.39C125.84,291.07,160.68,266,203.77,251.35Z" name="Layer %{number}" zoom="1" data-layer-id="1439746386120" style="fill: rgb(255, 255, 255); fill-opacity: 0;"></path><path class="cls-30" d="M340.77,307.63c-24.36-15.53-51.13-23-79.94-18.9-64.48,9.22-115.08,61.9-123.49,126.65a248.94,248.94,0,0,0,.32,66.7q4.09,5.28,8.73,10.54a250.68,250.68,0,0,1-.62-72.47c5.24-39.36,21.53-73.7,54.19-98.34,39.9-30.12,83.1-37.65,128.12-13.68,46.52,24.78,75.93,61.38,89.35,108.24,1-3,1.87-5.91,2.68-8.77C407.06,366.18,380.46,332.92,340.77,307.63Z" name="Layer %{number}" zoom="1" data-layer-id="9663490786120" style="fill: rgb(255, 255, 255); fill-opacity: 0;"></path><path class="cls-30" d="M127.93,255c51.29-37,106.67-50.17,168-28.52,1.91.67,4.45-.45,6.7-.74-.09-.8-.19-1.6-.28-2.41a10.22,10.22,0,0,0-1.95-1.68c-1.75-.86-3.57-1.61-5.4-2.3-25.53-9.6-51.71-10.86-78.67-7.87-47.59,5.29-92.43,31.49-124.37,66.67V289A184.66,184.66,0,0,1,127.93,255Z" name="Layer %{number}" zoom="1" data-layer-id="4192403786120" style="fill: rgb(255, 255, 255); fill-opacity: 0;"></path><path class="cls-30" d="M261.32,343c-19.39,3.56-35.33,14.43-51.64,24.65-16.11,10.09-26.29,24.13-30.18,42.55-1.89,8.93-3.79,18.12-3.69,27.17.4,36.17,8.69,69.4,24.27,99.81,3.25,2,6.62,3.88,10.07,5.76a225.79,225.79,0,0,1-23.51-66.9c-4.16-22.45-4.75-44.78,4.25-66.38,27.31-65.52,108.69-83.15,162.37-34.8,23.91,21.54,38.8,48.32,48.84,77.72q1.69-3.25,3.24-6.45c-7.76-22.45-18.82-43.39-34.48-61.85C342.31,350.64,306.06,334.84,261.32,343Z" name="Layer %{number}" zoom="1" data-layer-id="5345360186120" style="fill: rgb(255, 255, 255); fill-opacity: 0;"></path><path class="cls-30" d="M318.35,313.77a74.07,74.07,0,0,0-22.26-7.3C228.73,295,174.64,346.88,162.23,391.06c-11.38,40.49-11.1,79.59-.42,117.4q4.29,4,8.95,7.87-13.37-42.78-8.31-90.65c3.57-34.16,17.57-63.35,43.2-86.44,30.89-27.83,77.54-36.47,110.9-19,35.66,18.68,64.08,45.29,80.86,82.79,3.62,8.08,6.77,16.37,10.14,24.56l2.68-.11c-.25-2.61-.06-5.35-.82-7.79C394.31,371.29,362.2,337.35,318.35,313.77Z" name="Layer %{number}" zoom="1" data-layer-id="1069703686120" style="fill: rgb(255, 255, 255); fill-opacity: 0;"></path><path class="cls-30" d="M337,189.07c-1.19-1.88-1.94-4.69-3.64-5.51l-.81-.37L262.45,160l-7.62,2.45a307.39,307.39,0,0,1,75.3,26.47C332,189.86,334.67,189.06,337,189.07Z" name="Layer %{number}" zoom="1" data-layer-id="1657772386120" style="fill: rgb(255, 255, 255); fill-opacity: 0;"></path><path class="cls-30" d="M149,259.64c22.5-14.1,46.95-22.86,72.91-27.87,2-.38,3.53-2.8,5.28-4.26-2.22-.8-4.62-2.57-6.64-2.21a192.09,192.09,0,0,0-21,5C154.33,243.69,117.59,267,92,302.73v13C105.94,293.64,124.77,274.82,149,259.64Z" name="Layer %{number}" zoom="1" data-layer-id="8797979586120" style="fill: rgb(255, 255, 255); fill-opacity: 0;"></path><path class="cls-30" d="M92,214.88v4.57q5.16-4.2,10.56-8Z" name="Layer %{number}" zoom="1" data-layer-id="4378002486120" style="fill: rgb(255, 255, 255); fill-opacity: 0;"></path><path class="cls-30" d="M222.86,289.05c.61-.24,1.42-.44,1.7-.92a45.12,45.12,0,0,0,2-4.2c-1.41-.63-2.86-1.84-4.23-1.76-1.87.11-3.74,1.08-5.53,1.87-29.46,12.84-52.73,33.07-70.55,59.61-20.48,30.5-28.69,64.5-30.73,103.35,2.21,4.4,4.67,8.9,7.39,13.45a246.54,246.54,0,0,1,9.34-63.87C146.07,347.11,174,309.18,222.86,289.05Z" name="Layer %{number}" zoom="1" data-layer-id="9508951586120" style="fill: rgb(255, 255, 255); fill-opacity: 0;"></path><path class="cls-30" d="M151.58,219.23a9.61,9.61,0,0,0,3.69-2.62c.84-1.23.91-3,1.32-4.52a15.21,15.21,0,0,0-4.08-.74,10.3,10.3,0,0,0-3.62,1.43A229.23,229.23,0,0,0,92,253.32v10.33A206.39,206.39,0,0,1,151.58,219.23Z" name="Layer %{number}" zoom="1" data-layer-id="9318630486120" style="fill: rgb(255, 255, 255); fill-opacity: 0;"></path><path class="cls-30" d="M317,386c-52.13-18.27-103.11,19.92-99.16,73.91,2.64,36.12,19.9,66,41.23,94,.84,1.1,2.82,1.34,4.27,2,.08-1.72.53-3.53.14-5.14-.33-1.39-1.71-2.5-2.47-3.81C252.37,532,243,517.43,235.46,502c-8.2-16.67-11.44-34.75-10.28-53.48,2.26-36.18,35.48-63.87,71.5-60.26,22.16,2.23,40.38,12.42,56.56,26.51C371.87,431,382.65,451.5,389.47,474c1.28-1.92,2.53-3.84,3.72-5.75a176.3,176.3,0,0,0-10.38-24.49C368.61,415.85,346.41,396.36,317,386Z" name="Layer %{number}" zoom="1" data-layer-id="6488453486120" style="fill: rgb(255, 255, 255); fill-opacity: 0;"></path><path class="cls-30" d="M428.45,243.22v-7.45A372.34,372.34,0,0,0,392,202.85l-18.53-6.12a352.23,352.23,0,0,1,39.16,31Q420.86,235.26,428.45,243.22Z" name="Layer %{number}" zoom="1" data-layer-id="9432173486120" style="fill: rgb(255, 255, 255); fill-opacity: 0;"></path><path class="cls-30" d="M208.47,444.65c1.07-61.41,64.85-98,118.24-67.72,8.85,5,16.59,12,25,17.76,1.53,1.05,4,.67,6.08.95-.6-1.82-.67-4.24-1.9-5.35a177.25,177.25,0,0,0-14.31-11.46c-16.48-11.92-34.5-19.57-55.36-19.42-32,1.22-57,15.21-74,42.24-13.81,21.89-12.81,46.35-8.67,70.53,5.48,32,19.2,60,37.87,85.38,3.52,1.39,7.13,2.72,10.81,4-5.3-7.09-10.61-14.17-15.23-21.68C219.06,510.77,207.87,479.38,208.47,444.65Z" name="Layer %{number}" zoom="1" data-layer-id="9904676386120" style="fill: rgb(255, 255, 255); fill-opacity: 0;"></path><path class="cls-30" d="M294.78,404.11c-36.65-2-64.13,27.87-59.53,64.05,2.47,19.4,10.72,36.07,21.8,51.88,8.66,12.37,16.73,25.14,24.9,37.86,2-.8,4-1.63,6-2.45-8.17-12.84-16.24-25.76-25.05-38.15-11.35-16-19.83-32.83-21.12-52.74A50.61,50.61,0,0,1,300,410.75c16.95,2.47,30.9,10.57,42.85,22.21,17.35,16.9,26.9,37.6,32.15,60.3q2-2.42,4-4.84c-3.58-15.11-9.24-29.52-18.07-42.71C345.1,422.13,324.4,405.75,294.78,404.11Z" name="Layer %{number}" zoom="1" data-layer-id="5185205686120" style="fill: rgb(255, 255, 255); fill-opacity: 0;"></path><path class="cls-30" d="M161.25,290.82c1.55-1.45,1.52-4.61,2.22-7-2.24.63-5.08.6-6.61,2-16.34,15-30.68,31.61-41.71,51A186.72,186.72,0,0,0,95.61,388c1,5.19,2.24,10.75,3.82,16.6a217.55,217.55,0,0,1,6.8-29.81C116.43,341.49,136.09,314.36,161.25,290.82Z" name="Layer %{number}" zoom="1" data-layer-id="7471685486120" style="fill: rgb(255, 255, 255); fill-opacity: 0;"></path><path class="cls-30" d="M210,182.77c36.13-2.08,71.18,3.12,103.93,18.6,47.25,22.35,85.13,55.36,114.51,97.6V290a302.41,302.41,0,0,0-54.9-58.58C326.13,192.9,273,174,212.43,176.11l-10.34,3.33C203,183.81,206.77,183,210,182.77Z" name="Layer %{number}" zoom="1" data-layer-id="7244499586120" style="fill: rgb(255, 255, 255); fill-opacity: 0;"></path><path class="cls-30" d="M329,265.47c-29.89-13-60.83-21.27-93.63-14.19-14.86,3.2-29.27,8.5-43.79,13.16-1.68.55-2.72,3.1-4.05,4.72,2.4.5,4.78,1.13,7.21,1.44.72.09,1.53-.75,2.33-1.09,28.52-12.14,57.93-18.23,88.76-11.28,59.64,13.44,111.77,48.41,142.35,104,.29-4.3.37-7.76.38-10.19C406.38,314.11,373.56,284.91,329,265.47Z" name="Layer %{number}" zoom="1" data-layer-id="5947900786120" style="fill: rgb(255, 255, 255); fill-opacity: 0;"></path><path class="cls-30" d="M211.87,278.58c2.69-1,8.31-.59,6.19-5.92-.45-1.11-6-.25-9.14-.19-.6,0-1.17.54-1.79.78-29.93,11.33-52.38,31.87-70.28,57.77-18.91,27.36-28.83,57.25-32.75,88.73q2.24,6.5,5.05,13.27c1.95-24.21,7.21-47.84,18-70.26C145.36,324.8,171.14,294.12,211.87,278.58Z" name="Layer %{number}" zoom="1" data-layer-id="7407550486120" style="fill: rgb(255, 255, 255); fill-opacity: 0;"></path><path class="cls-30" d="M296,426.29c-16.35-1-32.79,7.74-38.73,20.76-6.48,14.23-3.18,31.4,9.44,43.11C284.25,506.45,296,526.11,304.27,548c1.6-.8,3.15-1.62,4.7-2.43-8.07-22.71-19.8-43.26-37.9-60.18-9.17-8.57-12.28-19.6-8.52-31.77s12.92-18.46,25-20.31c19.39-3,34.36,5.87,47,19.37,14.43,15.48,21.52,34.66,26,54.94.07.31.12.64.19.95,1.38-1.33,2.73-2.68,4-4C361,484,353.21,465,339,448.55,327.75,435.5,313.62,427.39,296,426.29Z" name="Layer %{number}" zoom="1" data-layer-id="0303492586120" style="fill: rgb(255, 255, 255); fill-opacity: 0;"></path><path class="cls-30" d="M372.75,310.45c-32.16-27.18-68.21-42.9-111.37-37-6.79.93-13.51,2.35-20.58,3.59,2.68,5.79,2.71,5.91,7.67,4.84,32.54-7,63.55-2.87,92.29,14,39.72,23.32,67.07,55.14,83.58,94.27.67-3.29,1.23-6.46,1.7-9.46A197.39,197.39,0,0,0,372.75,310.45Z" name="Layer %{number}" zoom="1" data-layer-id="4223401186120" style="fill: rgb(255, 255, 255); fill-opacity: 0;"></path><path class="cls-30" d="M179.61,206.64c24.25-7.27,49-8.13,74-5.76,31.75,3,59.62,16.12,85.46,33.87,14.93,10.26,29.18,21.49,43.91,32,1.64,1.17,4.4.77,6.65,1.1-1-2.21-1.51-5.14-3.23-6.51-8.34-6.67-16.92-13.08-25.61-19.31-21.68-15.53-43.69-30.59-69.24-39.27-29.3-10-59.44-11.82-89.91-7.68-10.18,1.39-20.11,4.64-30.48,7.12C174,208.13,174.07,208.3,179.61,206.64Z" name="Layer %{number}" zoom="1" data-layer-id="6061765586120" style="fill: rgb(255, 255, 255); fill-opacity: 0;"></path><path class="cls-30" d="M184.3,192.19c1.32-.55,2-2.7,2.93-4.12a22.2,22.2,0,0,0-4.25-1.82c-1-.2-2.11.41-3.16.69-3.59.95-7.11,2-10.59,3.07l-3.6,1.16c-28.32,9.34-52.81,23.26-73.68,41.5v9.2q33.58-30.85,81.72-46.55C177.19,194.18,180.91,193.6,184.3,192.19Z" name="Layer %{number}" zoom="1" data-layer-id="8079455286120" style="fill: rgb(255, 255, 255); fill-opacity: 0;"></path><path class="cls-30" d="M295.89,447.26c-9.66-1.42-18.85,3-21.27,10.23q-3.5,10.5,10.61,18.65c.56.33,1.13.65,1.72.94A55.75,55.75,0,0,1,309,498c7.29,11.83,13.56,24.14,17.25,37.54,1.42-.91,2.84-1.81,4.22-2.73-7.78-26-18.23-50.19-44.54-64-2.55-1.34-5.77-6.26-5-7.92,1.32-3,5.17-5.21,8.39-6.95,1.65-.89,4.29-.28,6.4.08,14.68,2.51,23.48,12.8,30.86,24.38a131.52,131.52,0,0,1,18.13,44.12q2.16-1.69,4.23-3.42c-3.86-18.7-11-36.17-22.67-51.78C318.61,457.11,309.13,449.21,295.89,447.26Z" name="Layer %{number}" zoom="1" data-layer-id="4875039686120" style="fill: rgb(255, 255, 255); fill-opacity: 0;"></path><path class="cls-30" d="M428.45,269.92v-8.57c-.85-1-1.68-2-2.54-2.91-17-18.94-36.42-35.11-57-49.95-2.7-1.94-5.83-4.63-8.82,1.62C386.32,227.33,409.33,247.09,428.45,269.92Z" name="Layer %{number}" zoom="1" data-layer-id="7712323786120" style="fill: rgb(255, 255, 255); fill-opacity: 0;"></path><path class="cls-30" d="M243.78,335.26c19.7-8,40.29-8.76,62.57-4.48l3.22-2.27a31.08,31.08,0,0,0-3.34-4,6.22,6.22,0,0,0-3.07-1c-33.81-5.52-64.57,2.08-92.34,21.89-1.58,1.13-1.76,4.23-2.6,6.41,2.07-.31,4.41-.1,6.17-1C224.23,345.68,233.57,339.39,243.78,335.26Z" name="Layer %{number}" zoom="1" data-layer-id="6580985186120" style="fill: rgb(255, 255, 255); fill-opacity: 0;"></path><path class="cls-30" d="M258.63,263.72l-4.29-2.56c-6.62,1.28-12.62,2.22-18.47,3.75-1.25.33-1.94,2.78-2.9,4.25,1.51.8,3.15,2.45,4.5,2.24a136.88,136.88,0,0,0,17.12-3.67C256.19,267.28,257.3,265.1,258.63,263.72Z" name="Layer %{number}" zoom="1" data-layer-id="6413426186120" style="fill: rgb(255, 255, 255); fill-opacity: 0;"></path><path class="cls-30" d="M466.05,340.46V176.37L262.33,109l-1-.32-208,66.93-2.19.7V340.23C51,343.26,49,390,73,446.44,95.24,498.78,144.94,568.8,255.5,605.16l1.44.47h3l6.38-.44.37-.12C352.89,576.71,411,524.82,444.2,446.43,467.57,391.42,466.27,345.39,466.05,340.46Zm-38.3,98.22c-20.31,47.9-61.28,111.93-162.61,145.24l-5.44.38h-2.17l-.89-.3C155.32,550.69,109.81,486.59,89.47,438.69c-22-51.88-20.09-95.31-20-97.12V191.86l191.66-61.67,186.61,61.7V341.71C447.9,345,449.38,387.77,427.75,438.68Z" name="Layer %{number}" zoom="1" data-layer-id="1975117586120" style="fill: rgb(255, 255, 255); fill-opacity: 0;"></path></svg></g><g transform="rotate(0 0 0)"><svg viewBoxSize="575" data-root-id="5673280486120" xmlns="http://www.w3.org/2000/svg" y="317.8659973144531" viewBox="0 0 0 0" x="294.5909862060547" height="0" width="0" fontUrl="http://fonts.gstatic.com/s/jost/v14/92zPtBhPNqw79Ij1E865zBUv7myjJQVGPokMmuHL.ttf" zoom="1" editorType="buyer" data-layer-role="slogan" style="position: absolute; top: 317.866px; width: 0px; height: 0px; left: 294.591px;"><g data-horizontal-grow="center" zoom="1" root="[object Object]" style="fill: rgb(151, 232, 255); fill-opacity: 1;"><path d="" transform="translate(0, 0)"></path></g></svg></g><g transform="rotate(0 0 0)"><svg viewBoxSize="575" data-root-id="9050889386120" xmlns="http://www.w3.org/2000/svg" y="267.63399731445315" viewBox="0.800000011920929 13.850000381469727 335.84002685546875 40.87000274658203" x="166.4209727783203" height="40.87000274658203" width="335.84002685546875" fontUrl="http://fonts.gstatic.com/s/staatliches/v13/HI_OiY8KO6hCsQSoAPmtMbectJG9O9PS.ttf" zoom="1" editorType="buyer" data-layer-role="brandName" style="position: absolute; top: 267.634px; width: 335.84px; height: 40.87px; left: 166.421px;"><g data-horizontal-grow="center" zoom="1" root="[object Object]" style="fill: rgb(255, 255, 255); fill-opacity: 1;"><path d="M11.97 54.72L11.97 54.72Q8.89 54.72 6.36 53.15Q3.82 51.59 2.31 48.99Q0.80 46.40 0.80 43.26L0.80 43.26L0.80 40.64Q0.80 40.36 1.08 40.36L1.08 40.36L7.47 40.36Q7.70 40.36 7.70 40.64L7.70 40.64L7.70 43.26Q7.70 45.14 8.95 46.48Q10.20 47.82 11.97 47.82L11.97 47.82Q13.74 47.82 14.99 46.45Q16.25 45.09 16.25 43.26L16.25 43.26Q16.25 41.15 13.51 39.61L13.51 39.61Q12.60 39.10 10.66 38.02Q8.72 36.94 7.01 35.97L7.01 35.97Q3.88 34.14 2.37 31.38Q0.85 28.61 0.85 25.14L0.85 25.14Q0.85 21.95 2.39 19.41Q3.93 16.87 6.47 15.39Q9.01 13.91 11.97 13.91L11.97 13.91Q14.99 13.91 17.53 15.42Q20.06 16.93 21.57 19.47Q23.09 22.00 23.09 25.14L23.09 25.14L23.09 29.81Q23.09 30.04 22.86 30.04L22.86 30.04L16.47 30.04Q16.25 30.04 16.25 29.81L16.25 29.81L16.19 25.14Q16.19 23.14 14.93 21.89Q13.68 20.63 11.97 20.63L11.97 20.63Q10.20 20.63 8.95 21.97Q7.70 23.31 7.70 25.14L7.70 25.14Q7.70 27.02 8.49 28.27Q9.29 29.53 11.40 30.67L11.40 30.67Q11.69 30.84 12.51 31.26Q13.34 31.69 14.31 32.23Q15.28 32.77 16.05 33.17Q16.82 33.57 16.99 33.69L16.99 33.69Q19.84 35.28 21.49 37.59Q23.14 39.90 23.14 43.26L23.14 43.26Q23.14 46.51 21.63 49.11Q20.12 51.70 17.58 53.21Q15.05 54.72 11.97 54.72ZM50.33 54.15L31.92 54.15Q31.69 54.15 31.69 53.87L31.69 53.87L31.75 14.71Q31.75 14.48 31.98 14.48L31.98 14.48L50.27 14.48Q50.50 14.48 50.50 14.76L50.50 14.76L50.50 21.15Q50.50 21.38 50.27 21.38L50.27 21.38L38.59 21.38L38.59 30.27L50.27 30.27Q50.50 30.27 50.50 30.49L50.50 30.49L50.56 36.94Q50.56 37.16 50.33 37.16L50.33 37.16L38.59 37.16L38.59 47.14L50.33 47.14Q50.56 47.14 50.56 47.42L50.56 47.42L50.56 53.92Q50.56 54.15 50.33 54.15L50.33 54.15ZM69.77 54.72L69.77 54.72Q66.63 54.72 64.10 53.15Q61.56 51.59 60.08 48.96Q58.60 46.34 58.60 43.09L58.60 43.09L58.65 25.31Q58.65 22.17 60.11 19.58Q61.56 16.99 64.10 15.42Q66.63 13.85 69.77 13.85L69.77 13.85Q72.90 13.85 75.41 15.39Q77.92 16.93 79.40 19.52Q80.88 22.12 80.88 25.31L80.88 25.31L80.88 27.93Q80.88 28.16 80.66 28.16L80.66 28.16L74.27 28.16Q74.04 28.16 74.04 27.93L74.04 27.93L74.04 25.31Q74.04 23.43 72.82 22.06Q71.59 20.69 69.77 20.69L69.77 20.69Q67.72 20.69 66.63 22.09Q65.55 23.48 65.55 25.31L65.55 25.31L65.55 43.09Q65.55 45.20 66.78 46.51Q68.00 47.82 69.77 47.82L69.77 47.82Q71.59 47.82 72.82 46.37Q74.04 44.92 74.04 43.09L74.04 43.09L74.04 40.47Q74.04 40.24 74.27 40.24L74.27 40.24L80.71 40.24Q80.94 40.24 80.94 40.47L80.94 40.47L80.94 43.09Q80.94 46.34 79.43 48.96Q77.92 51.59 75.41 53.15Q72.90 54.72 69.77 54.72ZM100.49 54.72L100.49 54.72Q97.47 54.72 94.91 53.15Q92.34 51.59 90.83 48.96Q89.32 46.34 89.32 43.21L89.32 43.21L89.43 14.71Q89.43 14.48 89.66 14.48L89.66 14.48L96.05 14.48Q96.27 14.48 96.27 14.71L96.27 14.71L96.27 43.21Q96.27 45.14 97.50 46.48Q98.72 47.82 100.49 47.82L100.49 47.82Q102.32 47.82 103.54 46.48Q104.77 45.14 104.77 43.21L104.77 43.21L104.77 14.71Q104.77 14.48 104.99 14.48L104.99 14.48L111.38 14.48Q111.61 14.48 111.61 14.71L111.61 14.71L111.72 43.21Q111.72 46.40 110.21 49.02Q108.70 51.64 106.16 53.18Q103.63 54.72 100.49 54.72ZM127.45 54.15L121.01 54.15Q120.78 54.15 120.78 53.87L120.78 53.87L120.90 14.71Q120.90 14.48 121.13 14.48L121.13 14.48L132.64 14.48Q135.72 14.48 138.31 15.99Q140.90 17.50 142.44 20.04Q143.98 22.57 143.98 25.76L143.98 25.76Q143.98 27.87 143.36 29.55Q142.73 31.24 141.87 32.40Q141.02 33.57 140.33 34.14L140.33 34.14Q143.41 37.56 143.41 42.18L143.41 42.18L143.47 53.87Q143.47 54.15 143.18 54.15L143.18 54.15L136.74 54.15Q136.52 54.15 136.52 53.98L136.52 53.98L136.52 42.18Q136.52 40.13 135.06 38.62Q133.61 37.11 131.50 37.11L131.50 37.11L127.74 37.11L127.68 53.87Q127.68 54.15 127.45 54.15L127.45 54.15ZM127.74 21.32L127.74 30.27L132.64 30.27Q134.41 30.27 135.77 28.96Q137.14 27.64 137.14 25.76L137.14 25.76Q137.14 23.94 135.80 22.63Q134.46 21.32 132.64 21.32L132.64 21.32L127.74 21.32ZM171.46 54.15L153.05 54.15Q152.82 54.15 152.82 53.87L152.82 53.87L152.87 14.71Q152.87 14.48 153.10 14.48L153.10 14.48L171.40 14.48Q171.63 14.48 171.63 14.76L171.63 14.76L171.63 21.15Q171.63 21.38 171.40 21.38L171.40 21.38L159.71 21.38L159.71 30.27L171.40 30.27Q171.63 30.27 171.63 30.49L171.63 30.49L171.68 36.94Q171.68 37.16 171.46 37.16L171.46 37.16L159.71 37.16L159.71 47.14L171.46 47.14Q171.68 47.14 171.68 47.42L171.68 47.42L171.68 53.92Q171.68 54.15 171.46 54.15L171.46 54.15ZM190.66 54.72L190.66 54.72Q187.59 54.72 185.05 53.15Q182.51 51.59 181.00 48.99Q179.49 46.40 179.49 43.26L179.49 43.26L179.49 40.64Q179.49 40.36 179.78 40.36L179.78 40.36L186.16 40.36Q186.39 40.36 186.39 40.64L186.39 40.64L186.39 43.26Q186.39 45.14 187.64 46.48Q188.90 47.82 190.66 47.82L190.66 47.82Q192.43 47.82 193.69 46.45Q194.94 45.09 194.94 43.26L194.94 43.26Q194.94 41.15 192.20 39.61L192.20 39.61Q191.29 39.10 189.35 38.02Q187.42 36.94 185.71 35.97L185.71 35.97Q182.57 34.14 181.06 31.38Q179.55 28.61 179.55 25.14L179.55 25.14Q179.55 21.95 181.09 19.41Q182.63 16.87 185.16 15.39Q187.70 13.91 190.66 13.91L190.66 13.91Q193.69 13.91 196.22 15.42Q198.76 16.93 200.27 19.47Q201.78 22.00 201.78 25.14L201.78 25.14L201.78 29.81Q201.78 30.04 201.55 30.04L201.55 30.04L195.17 30.04Q194.94 30.04 194.94 29.81L194.94 29.81L194.88 25.14Q194.88 23.14 193.63 21.89Q192.38 20.63 190.66 20.63L190.66 20.63Q188.90 20.63 187.64 21.97Q186.39 23.31 186.39 25.14L186.39 25.14Q186.39 27.02 187.19 28.27Q187.99 29.53 190.09 30.67L190.09 30.67Q190.38 30.84 191.21 31.26Q192.03 31.69 193.00 32.23Q193.97 32.77 194.74 33.17Q195.51 33.57 195.68 33.69L195.68 33.69Q198.53 35.28 200.18 37.59Q201.84 39.90 201.84 43.26L201.84 43.26Q201.84 46.51 200.33 49.11Q198.82 51.70 196.28 53.21Q193.74 54.72 190.66 54.72ZM217.06 54.15L210.62 54.15Q210.39 54.15 210.39 53.87L210.39 53.87L210.44 14.71Q210.44 14.48 210.73 14.48L210.73 14.48L217.06 14.48Q217.34 14.48 217.34 14.71L217.34 14.71L217.28 30.21L225.83 30.21L225.83 14.71Q225.83 14.48 226.06 14.48L226.06 14.48L232.39 14.48Q232.67 14.48 232.67 14.71L232.67 14.71L232.79 53.87Q232.79 54.15 232.50 54.15L232.50 54.15L226.12 54.15Q225.83 54.15 225.83 53.87L225.83 53.87L225.83 37.11L217.28 37.11L217.28 53.87Q217.28 54.15 217.06 54.15L217.06 54.15ZM248.75 54.15L242.31 54.15Q242.02 54.15 242.02 53.87L242.02 53.87L242.08 14.71Q242.08 14.48 242.31 14.48L242.31 14.48L248.69 14.48Q248.92 14.48 248.92 14.71L248.92 14.71L248.98 53.87Q248.98 54.15 248.75 54.15L248.75 54.15ZM277.19 54.15L258.78 54.15Q258.55 54.15 258.55 53.87L258.55 53.87L258.61 14.71Q258.61 14.48 258.84 14.48L258.84 14.48L277.13 14.48Q277.36 14.48 277.36 14.76L277.36 14.76L277.36 21.15Q277.36 21.38 277.13 21.38L277.13 21.38L265.45 21.38L265.45 30.27L277.13 30.27Q277.36 30.27 277.36 30.49L277.36 30.49L277.42 36.94Q277.42 37.16 277.19 37.16L277.19 37.16L265.45 37.16L265.45 47.14L277.19 47.14Q277.42 47.14 277.42 47.42L277.42 47.42L277.42 53.92Q277.42 54.15 277.19 54.15L277.19 54.15ZM305.69 54.15L287.28 54.15Q287.05 54.15 287.05 53.87L287.05 53.87L287.11 14.76Q287.11 14.48 287.39 14.48L287.39 14.48L293.72 14.48Q294.01 14.48 294.01 14.76L294.01 14.76L293.95 47.14L305.69 47.14Q305.98 47.14 305.98 47.42L305.98 47.42L305.98 53.87Q305.98 54.15 305.69 54.15L305.69 54.15ZM324.73 54.09L314.53 54.15Q314.24 54.15 314.24 53.87L314.24 53.87L314.36 14.71Q314.36 14.48 314.58 14.48L314.58 14.48L325.24 14.42Q328.38 14.36 330.97 15.90Q333.56 17.44 335.10 20.04Q336.64 22.63 336.64 25.76L336.64 25.76L336.64 42.12Q336.64 45.43 335.05 48.14Q333.45 50.84 330.77 52.44Q328.09 54.04 324.73 54.09L324.73 54.09ZM321.25 21.32L321.19 47.14L324.73 47.14Q326.84 47.14 328.29 45.66Q329.75 44.17 329.75 42.12L329.75 42.12L329.75 25.71Q329.75 23.88 328.41 22.54Q327.07 21.20 325.24 21.26L325.24 21.26L321.25 21.32Z" transform="translate(0, 0)"></path></g></svg></g></svg>